<?xml version="1.0" standalone="no"?><!DOCTYPE svg PUBLIC "-//W3C//DTD SVG 1.1//EN" "http://www.w3.org/Graphics/SVG/1.1/DTD/svg11.dtd"><svg t="1658463610498" class="icon" viewBox="0 0 1024 1024" version="1.1" xmlns="http://www.w3.org/2000/svg" p-id="21636" width="1080" height="1080" xmlns:xlink="http://www.w3.org/1999/xlink"><defs><style type="text/css">@font-face { font-family: feedback-iconfont; src: url("//at.alicdn.com/t/font_1031158_u69w8yhxdu.woff2?t=1630033759944") format("woff2"), url("//at.alicdn.com/t/font_1031158_u69w8yhxdu.woff?t=1630033759944") format("woff"), url("//at.alicdn.com/t/font_1031158_u69w8yhxdu.ttf?t=1630033759944") format("truetype"); }
</style></defs><path d="M855.168 306.304c9.6 16.512 14.72 23.68 15.232 44.16v418.56c-1.024 32.384-6.656 53.76-28.032 75.136-21.376 21.504-42.496 27.136-74.752 28.16H174.208c-32.256-1.024-53.504-6.656-74.752-28.16-21.376-21.504-27.008-42.752-28.032-75.136v-418.56c0-20.352 5.248-27.648 15.616-44.16 10.368-16.512 18.688-24.832 35.84-36.352L413.952 86.272c17.664-11.52 37.504-17.28 59.648-17.28s41.984 5.76 59.648 17.28l291.2 183.68c14.592 11.52 21.12 19.968 30.72 36.352z" fill="#319EEC" p-id="21637"></path><path d="M412.544 761.984H243.84c-24.96 0-45.44-20.48-45.44-45.44V546.432c0-24.96 20.48-45.44 45.44-45.44h168.832c24.96 0 45.44 20.48 45.44 45.44v170.112c-0.128 25.088-20.608 45.44-45.568 45.44zM587.776 753.536h-73.344c-10.88 0-19.712-8.832-19.712-19.712v-73.984c0-10.88 8.832-19.712 19.712-19.712h73.344c10.88 0 19.712 8.832 19.712 19.712v73.984c0 10.752-8.832 19.712-19.712 19.712zM587.776 614.528h-73.344c-10.88 0-19.712-8.832-19.712-19.712v-73.984c0-10.88 8.832-19.712 19.712-19.712h73.344c10.88 0 19.712 8.832 19.712 19.712v73.984c0 10.88-8.832 19.712-19.712 19.712zM734.72 753.536h-73.344c-10.88 0-19.712-8.832-19.712-19.712v-73.984c0-10.88 8.832-19.712 19.712-19.712H734.72c10.88 0 19.712 8.832 19.712 19.712v73.984c0 10.752-8.832 19.712-19.712 19.712z" fill="#BAE7FF" p-id="21638"></path><path d="M942.72 859.392l12.928 21.632c3.84 6.4 2.816 14.464-2.432 19.712L925.44 928.512c-5.248 5.248-13.312 6.272-19.712 2.432l-21.632-12.928c-19.2 12.416-40.576 21.248-62.848 26.112l-6.144 24.448c-1.792 7.168-8.192 12.16-15.616 12.16h-39.296c-7.424 0-13.824-4.992-15.616-12.16l-6.144-24.448c-22.4-4.864-43.648-13.696-62.848-26.112l-21.632 12.928c-6.4 3.84-14.464 2.816-19.712-2.432l-27.776-27.776c-5.248-5.248-6.272-13.312-2.432-19.712l12.928-21.632c-12.416-19.2-21.248-40.576-26.112-62.848l-24.448-6.144c-7.168-1.792-12.16-8.192-12.16-15.616v-39.296c0-7.424 4.992-13.824 12.16-15.616l24.448-6.144c4.864-22.4 13.696-43.648 26.112-62.848l-12.928-21.632c-3.84-6.4-2.816-14.464 2.432-19.712l27.776-27.776c5.248-5.248 13.312-6.272 19.712-2.432l21.632 12.928c19.2-12.416 40.576-21.248 62.848-26.112l6.144-24.448c1.792-7.168 8.192-12.16 15.616-12.16h39.296c7.424 0 13.824 4.992 15.616 12.16l6.144 24.448c22.4 4.864 43.648 13.696 62.848 26.112l21.632-12.928c6.4-3.84 14.464-2.816 19.712 2.432l27.776 27.776c5.248 5.248 6.272 13.312 2.432 19.712l-12.928 21.632c12.416 19.2 21.248 40.576 26.112 62.848l24.448 6.144c7.168 1.792 12.16 8.192 12.16 15.616v39.296c0 7.424-4.992 13.824-12.16 15.616l-24.448 6.144c-4.992 22.272-13.824 43.52-26.112 62.848z m-162.944 10.88c63.616 0 115.2-51.584 115.2-115.2s-51.584-115.2-115.2-115.2-115.2 51.584-115.2 115.2 51.584 115.2 115.2 115.2z" fill="#FFFFFF" p-id="21639"></path><path d="M664.576 755.072c0 63.616 51.584 115.2 115.2 115.2s115.2-51.584 115.2-115.2-51.584-115.2-115.2-115.2-115.2 51.584-115.2 115.2z m0 0" fill="#FFFFFF" opacity=".5" p-id="21640"></path></svg>